<?xml version="1.0" encoding="UTF-8"?>
<svg xmlns="http://www.w3.org/2000/svg" id="Ebene_1" version="1.1" viewBox="0 0 424.7 149.6">
  <defs>
    <style>
      .st0 {
        fill: #ea5451;
      }

      .st1 {
        fill: #003754;
      }
    </style>
  </defs>
  <rect class="st0" x="32" y="66.9" width="16" height="50.4"></rect>
  <g>
    <path class="st1" d="M100.5,72.2c4.4-1.2,8.1-3.4,10.9-6.5,2.8-3.1,4.3-7,4.3-11.9,0-7.4-2.9-12.9-8.7-16.5-5.8-3.6-14.1-5.4-24.8-5.4h-21.2v85.3h24.3c10.5,0,18.8-1.9,24.7-5.9,6-3.9,8.9-10.2,8.9-18.8s-1.7-10.9-5-14.1c-3.3-3.1-7.8-5.3-13.4-6.4ZM78.7,44.8h5.2c4.8,0,8.2.8,10.4,2.5,2.2,1.6,3.3,4.4,3.3,8.1,0,7.6-4.2,11.3-12.5,11.3h-6.4v-21.9ZM96.7,101.4c-2.6,1.8-6.4,2.7-11.4,2.7h-6.7v-25.3h7.6c9.5,0,14.3,4.3,14.3,12.9s-1.3,7.8-3.9,9.6Z"></path>
    <rect class="st1" x="128" y="32" width="17.8" height="85.3"></rect>
    <polygon class="st1" points="201.1 65.8 177.4 65.8 177.4 32 159.6 32 159.6 117.3 177.4 117.3 177.4 79.8 201.1 79.8 201.1 117.3 218.8 117.3 218.8 32 201.1 32 201.1 65.8"></polygon>
    <path class="st1" d="M240.7,41.1c1-.2,1.8-.7,2.5-1.4.6-.7.9-1.6.9-2.8,0-1.6-.6-2.8-1.8-3.6-1.2-.8-2.9-1.2-5.1-1.2h-4.1s0,19.1,0,19.1h4.9c2.2,0,3.8-.4,5.1-1.3,1.2-.9,1.8-2.2,1.9-4.1,0-2.7-1.4-4.3-4.2-4.7ZM235.6,34h1.8c1.4,0,2.4.3,3,.7.7.5,1,1.3,1,2.3,0,1-.3,1.7-.9,2.3-.6.5-1.4.8-2.5.8h-2.4s0-6.2,0-6.2ZM241,48.4c-.7.5-1.8.8-3.1.8h-2.3s0-7,0-7h2.6c2.6,0,3.9,1.2,3.9,3.6,0,1.2-.4,2.1-1.1,2.6Z"></path>
    <path class="st1" d="M252.9,51.6c1.7,0,3.3-.6,4.7-1.8l-1.1-1.5c-.6.5-1.1.8-1.7,1-.5.2-1.1.3-1.8.3-1.1,0-1.9-.4-2.5-1.1-.6-.8-.9-2-1-3.7h8.5c0-.4,0-.9,0-1.3,0-2.3-.5-4.1-1.4-5.4-.9-1.3-2.3-1.9-4.1-1.9-1.8,0-3.2.7-4.2,2.1-1,1.4-1.5,3.3-1.5,5.7,0,2.4.5,4.3,1.5,5.6,1,1.3,2.5,2,4.4,2ZM250.5,39.3c.5-.8,1.3-1.1,2.2-1.1,2,0,3,1.5,3,4.6v.3s-6.1,0-6.1,0c0-1.7.4-3,.9-3.7Z"></path>
    <path class="st1" d="M263.3,42.7c.3-1.3.7-2.3,1.2-3,.5-.6,1.2-1,2-1,.4,0,.8,0,1.1.2l.4-2.4c-.4-.1-.8-.2-1.3-.2-1.7,0-2.9,1.1-3.7,3.2l-.2-2.9h-2.2s0,14.6,0,14.6h2.5s0-8.6,0-8.6Z"></path>
    <path class="st1" d="M272.9,51.7c.6,0,1.3-.2,1.9-.5l-.5-1.8c-.3.1-.6.2-.8.2-.6,0-.9-.4-.9-1.1v-18.1c0,0-2.4.3-2.4.3v17.9c0,1,.2,1.7.7,2.3.5.5,1.2.8,2.1.8Z"></path>
    <path class="st1" d="M278.3,33.1c.5,0,.9-.1,1.2-.5.3-.3.4-.7.5-1.2s-.1-.9-.5-1.2c-.3-.3-.7-.5-1.2-.5s-.9.2-1.2.5c-.3.3-.5.7-.5,1.2s.1.8.5,1.2c.3.3.7.5,1.2.5Z"></path>
    <rect class="st1" x="270.9" y="42.8" width="14.6" height="2.5" transform="translate(233 322.1) rotate(-89.8)"></rect>
    <path class="st1" d="M285.4,41c1-1.7,2.1-2.6,3.3-2.6.6,0,1.1.2,1.4.6.3.4.5,1.1.5,2v10.3s2.5,0,2.5,0v-10.7c0-1.4-.3-2.4-.9-3.2-.7-.8-1.6-1.2-2.7-1.2-1.7,0-3,.8-4.2,2.5l-.2-2.2h-2.2s0,14.6,0,14.6h2.5s0-10.4,0-10.4Z"></path>
    <rect class="st1" x="295.6" y="40.6" width="19.1" height="2.6" transform="translate(261.9 346.9) rotate(-89.7)"></rect>
    <path class="st1" d="M312.5,41.1c1-1.7,2.1-2.6,3.3-2.6.6,0,1.1.2,1.4.6.3.4.5,1.1.5,2v10.3s2.5,0,2.5,0v-10.7c0-1.4-.3-2.4-.9-3.2-.7-.8-1.6-1.2-2.7-1.2-1.7,0-3,.8-4.2,2.5l-.2-2.2h-2.2s0,14.6,0,14.6h2.5s0-10.4,0-10.4Z"></path>
    <path class="st1" d="M328.5,43.1c-1.2-.4-2-.7-2.4-1.1-.4-.4-.6-.8-.6-1.4,0-.6.2-1.1.7-1.5.4-.4,1-.5,1.8-.5.6,0,1.1.1,1.6.3.5.2,1.1.5,1.7.9l1.1-1.5c-1.3-1.1-2.8-1.7-4.5-1.7-.9,0-1.8.2-2.5.5-.7.3-1.3.8-1.7,1.4-.4.6-.6,1.3-.6,2.1,0,1,.3,1.8.9,2.5.6.7,1.6,1.2,3,1.7.9.3,1.5.5,2,.8.5.3.8.5.9.9.2.3.3.7.3,1.3,0,.7-.3,1.3-.8,1.7s-1.2.6-2,.6c-1.3,0-2.5-.5-3.7-1.4l-1.3,1.4c1.4,1.3,3,2,5,2,1.5,0,2.8-.4,3.8-1.2,1-.8,1.5-1.9,1.5-3.2,0-1.2-.3-2.1-1-2.8-.7-.7-1.7-1.2-3.2-1.7Z"></path>
    <path class="st1" d="M341,49.8c-.3,0-.6.1-.9.1-1.1,0-1.6-.6-1.6-1.9v-9.2s3,0,3,0l.3-1.9h-3.2s0-3.7,0-3.7l-2.5.3v3.4s-2.1,0-2.1,0v1.9s2.1,0,2.1,0v9.2c0,1.2.3,2.2.9,2.9.6.7,1.5,1,2.7,1,1.1,0,2.2-.3,3.1-1l-.9-1.6c-.3.2-.6.3-.9.4Z"></path>
    <rect class="st1" x="339" y="43.1" width="14.6" height="2.5" transform="translate(300.5 390.4) rotate(-89.8)"></rect>
    <path class="st1" d="M346.3,30.1c-.5,0-.9.2-1.2.5-.3.3-.5.7-.5,1.2s.1.8.5,1.2.7.5,1.2.5c.5,0,.9-.1,1.2-.5.3-.3.4-.7.5-1.2s-.1-.9-.5-1.2c-.3-.3-.7-.5-1.2-.5Z"></path>
    <path class="st1" d="M356.6,49.9c-.3,0-.6.1-.9.1-1.1,0-1.6-.6-1.6-1.9v-9.2s3,0,3,0l.3-1.9h-3.2s0-3.7,0-3.7l-2.5.3v3.4s-2.1,0-2.1,0v1.9s2.1,0,2.1,0v9.2c0,1.2.3,2.2.9,2.9.6.7,1.5,1,2.7,1,1.1,0,2.2-.3,3.1-1l-.9-1.6c-.3.2-.6.3-.9.4Z"></path>
    <path class="st1" d="M367.5,47.7c-.9,1.6-2,2.4-3.2,2.4-.6,0-1.1-.2-1.5-.6-.3-.4-.5-1-.5-1.9v-10.5s-2.5,0-2.5,0v10.8c0,1.3.3,2.3.9,3.1.7.8,1.6,1.1,2.7,1.2,1.7,0,3.1-.8,4.1-2.5v2.2c.1,0,2.3,0,2.3,0v-14.6c0,0-2.4,0-2.4,0v10.6Z"></path>
    <path class="st1" d="M379.1,50c-.3,0-.6.1-.9.1-1.1,0-1.6-.6-1.6-1.9v-9.2s3,0,3,0l.3-1.9h-3.2s0-3.7,0-3.7l-2.5.3v3.4s-2.1,0-2.1,0v1.9s2.1,0,2.1,0v9.2c0,1.2.3,2.2.9,2.9s1.5,1,2.7,1c1.1,0,2.2-.3,3.1-1l-.9-1.6c-.3.2-.6.3-.9.4Z"></path>
    <path class="st1" d="M393,44.1c0-2.3-.5-4.1-1.4-5.4-.9-1.3-2.3-1.9-4.1-1.9-1.8,0-3.2.7-4.2,2.1-1,1.4-1.5,3.3-1.5,5.7,0,2.4.5,4.3,1.5,5.6s2.5,2,4.4,2c1.7,0,3.3-.6,4.7-1.8l-1.1-1.5c-.6.5-1.1.8-1.7,1-.5.2-1.1.3-1.8.3-1.1,0-1.9-.4-2.5-1.1-.6-.8-.9-2-1-3.7h8.5c0-.4,0-.9,0-1.3ZM390.5,43.6h-6.1c0-1.8.4-3,.9-3.8.5-.8,1.3-1.1,2.2-1.1,2,0,3,1.5,3,4.6v.3Z"></path>
    <path class="st1" d="M237.9,64.8c-1.9,0-3.3.7-4.4,2-1.1,1.3-1.6,3.2-1.6,5.7,0,2.4.5,4.3,1.5,5.7,1,1.4,2.5,2,4.4,2,1.9,0,3.3-.7,4.4-2.1,1.1-1.4,1.6-3.3,1.6-5.6,0-2.5-.5-4.4-1.5-5.7-1-1.3-2.5-2-4.4-2ZM237.8,78.2c-2.2,0-3.3-1.9-3.3-5.7,0-1.9.3-3.4.9-4.3.6-.9,1.4-1.4,2.5-1.4,1.1,0,1.9.5,2.5,1.4s.8,2.3.8,4.3c0,3.8-1.1,5.7-3.4,5.7Z"></path>
    <path class="st1" d="M248.3,60.2c-.8.7-1.1,1.7-1.1,2.9v2.1s-2.2,0-2.2,0v1.9s2.2,0,2.2,0v12.7c0,0,2.4,0,2.4,0v-12.7c0,0,3.1,0,3.1,0l.3-1.9h-3.3s0-2.2,0-2.2c0-.7.2-1.2.5-1.6.3-.3.8-.5,1.5-.5.8,0,1.5.2,2.3.6l.8-1.7c-1.1-.5-2.2-.8-3.3-.8-1.3,0-2.4.4-3.1,1.1Z"></path>
    <polygon class="st1" points="273.6 80 273.6 60.9 271.1 60.8 271 68.9 264.1 68.9 264.1 60.8 261.5 60.8 261.4 79.9 264 80 264.1 71 271 71 271 80 273.6 80"></polygon>
    <path class="st1" d="M277.8,67.1c-1,1.4-1.5,3.3-1.5,5.7,0,2.4.5,4.3,1.5,5.6s2.5,2,4.4,2c1.7,0,3.3-.6,4.7-1.8l-1.1-1.5c-.6.5-1.1.8-1.7,1-.5.2-1.1.3-1.8.3-1.1,0-1.9-.4-2.5-1.1s-.9-2-1-3.7h8.5c0-.4,0-.9,0-1.3,0-2.3-.5-4.1-1.4-5.4-.9-1.3-2.3-1.9-4.1-1.9-1.8,0-3.2.7-4.2,2.1ZM279.8,68.1c.5-.8,1.3-1.1,2.2-1.1,2,0,3,1.5,3,4.6v.3s-6.1,0-6.1,0c0-1.7.4-3,.9-3.7Z"></path>
    <path class="st1" d="M297.6,78.2c.2.7.4,1.2.9,1.5.4.3,1,.6,1.7.7l.5-1.7c-.4-.1-.6-.4-.8-.7-.2-.3-.2-.7-.2-1.3v-6.9c0-3.2-1.5-4.8-4.7-4.8-1.4,0-2.9.3-4.6,1l.6,1.8c1.4-.5,2.5-.8,3.6-.8.9,0,1.6.2,2,.7s.6,1.2.6,2.2v1.3s-1.9,0-1.9,0c-1.9,0-3.3.4-4.4,1.2-1,.8-1.5,2-1.5,3.6,0,1.4.4,2.4,1.1,3.2.8.8,1.8,1.2,3.1,1.2,1.7,0,3-.7,4-2.2ZM294.2,78.6c-.7,0-1.3-.2-1.7-.7-.4-.5-.6-1.1-.6-2,0-2,1.2-3,3.6-3h1.6s0,3.5,0,3.5c-.7,1.5-1.7,2.3-3,2.3Z"></path>
    <path class="st1" d="M306.1,80.5c.6,0,1.3-.2,1.9-.5l-.5-1.8c-.3.1-.6.2-.8.2-.6,0-.9-.4-.9-1.1v-18.1c0,0-2.4.3-2.4.3v17.9c0,1,.2,1.7.7,2.3.5.5,1.2.8,2.1.8Z"></path>
    <path class="st1" d="M310.3,76.6c0,1.2.3,2.2.9,2.9.6.7,1.5,1,2.7,1,1.1,0,2.2-.3,3.1-1l-.9-1.6c-.3.2-.6.3-.9.4-.3,0-.6.1-.9.1-1.1,0-1.6-.6-1.6-1.9v-9.2s3,0,3,0l.3-1.9h-3.2s0-3.7,0-3.7l-2.5.3v3.4s-2.1,0-2.1,0v1.9s2.1,0,2.1,0v9.2Z"></path>
    <path class="st1" d="M325.3,65.2c-.9,0-1.6.2-2.3.6-.7.4-1.2,1-1.8,1.8v-8.3s-2.5.3-2.5.3v20.5c0,0,2.4,0,2.4,0v-10.4c1.1-1.7,2.2-2.6,3.4-2.6.6,0,1.1.2,1.4.6.3.4.5,1.1.5,2v10.3s2.5,0,2.5,0v-10.7c0-1.3-.3-2.4-.9-3.2-.7-.8-1.6-1.2-2.7-1.2Z"></path>
    <path class="st1" d="M243.1,103.9c-1.5-.7-2.9-1.1-4.3-1.1-1.6,0-3,.5-4.1,1.5-1.1,1-1.9,2.2-2.4,3.7-.5,1.5-.8,3-.8,4.5,0,1.6.3,2.8,1.1,3.7.7.9,1.7,1.4,3,1.4.8,0,1.5-.2,2.1-.6.6-.4,1.2-.9,1.7-1.7,0,.7.3,1.2.6,1.6.4.4.9.6,1.5.7l.8-1.6c-.3-.1-.5-.3-.6-.4-.1-.2-.2-.4-.2-.7,0-.1,0-.4,0-.7l1.5-10.1ZM239.4,113.1c-.6.8-1.1,1.5-1.7,1.9-.5.4-1.1.6-1.7.6-1.4,0-2.1-1.1-2.1-3.2,0-1.2.2-2.4.5-3.6.3-1.2.9-2.2,1.6-2.9.7-.8,1.6-1.2,2.7-1.2.7,0,1.3.1,1.8.4l-1.2,8.1Z"></path>
    <path class="st1" d="M250.5,99.6l-1.9.2-.8,3.3h-2.2s-.3,1.8-.3,1.8h2.1s-1.3,8.8-1.3,8.8c0,.4,0,.6,0,.7,0,.9.3,1.7.8,2.2.5.5,1.3.8,2.3.8,1,0,2-.3,2.9-.9l-.7-1.6c-.4.2-.7.3-1,.4-.3,0-.6.1-.8.1-.4,0-.7-.1-.9-.3-.2-.2-.3-.5-.3-.9,0-.2,0-.4,0-.5l1.3-8.9h2.7s.5-1.8.5-1.8h-3s.5-3.5.5-3.5Z"></path>
    <path class="st1" d="M263.9,102.1c.9-1,2.1-1.6,3.4-1.5.6,0,1.1.1,1.5.3.5.2.9.5,1.4.9l1.4-1.3c-.6-.6-1.2-1.1-1.9-1.4-.7-.3-1.5-.5-2.5-.5-1.9,0-3.5.6-4.7,1.8-1.3,1.2-2.2,2.7-2.8,4.6-.6,1.8-.9,3.7-.9,5.6,0,2.2.5,4,1.5,5.2,1,1.2,2.4,1.9,4.2,1.9,1.8,0,3.5-.6,5-2l-1-1.6c-.7.5-1.3.9-1.9,1.1-.5.3-1.2.4-1.9.4-1.1,0-1.9-.4-2.5-1.2-.6-.8-.9-2-.9-3.7,0-1.6.2-3.2.6-4.7.4-1.5,1.1-2.8,2-3.9Z"></path>
    <path class="st1" d="M279.4,102.9c-1.6,0-3,.9-4.2,2.8l1.2-8.4-2.4.2-2.9,19.7h2.3s1.2-8.6,1.2-8.6c1.4-2.6,2.7-3.8,4-3.8.9,0,1.3.5,1.3,1.6,0,.1,0,.4,0,.8l-1.4,10h2.3s1.5-10.1,1.5-10.1c0-.2,0-.5,0-.9,0-1.1-.3-1.9-.8-2.5-.5-.6-1.3-.9-2.2-.9Z"></path>
    <path class="st1" d="M295.7,104.1c-1.5-.7-2.9-1.1-4.3-1.1-1.6,0-3,.5-4.1,1.5-1.1,1-1.9,2.2-2.4,3.7-.5,1.5-.8,3-.8,4.5,0,1.6.3,2.8,1.1,3.7.7.9,1.7,1.4,3,1.4.8,0,1.5-.2,2.1-.6.6-.4,1.2-.9,1.7-1.7,0,.7.3,1.2.6,1.6.4.4.9.6,1.5.7l.8-1.6c-.3-.1-.5-.3-.6-.4-.1-.2-.2-.4-.2-.7,0-.1,0-.4,0-.7l1.5-10.1ZM292,113.3c-.6.8-1.1,1.5-1.7,1.9-.5.4-1.1.6-1.7.6-1.4,0-2.1-1.1-2.1-3.2,0-1.2.2-2.4.5-3.6.3-1.2.9-2.2,1.6-2.9.7-.8,1.6-1.2,2.7-1.2.7,0,1.3.1,1.8.4l-1.2,8.1Z"></path>
    <path class="st1" d="M305.1,103c-.8,0-1.5.2-2.1.8-.6.5-1.2,1.3-1.7,2.3l.2-2.7h-2s-2,14.1-2,14.1h2.3s1.1-7.5,1.1-7.5c.5-1.5,1-2.6,1.6-3.4.6-.8,1.3-1.2,2.1-1.2.3,0,.7,0,1,.1l.7-2.2c-.4-.1-.9-.2-1.3-.2Z"></path>
    <path class="st1" d="M310.2,96.7c-.5,0-.9.2-1.2.5-.3.3-.5.8-.5,1.3,0,.4.1.8.4,1s.6.4,1.1.4c.5,0,.9-.2,1.2-.5.3-.3.5-.8.5-1.3,0-.4-.1-.8-.4-1-.3-.3-.6-.4-1.1-.4Z"></path>
    <polygon class="st1" points="306.2 117.4 308.5 117.4 310.6 103.3 308.2 103.3 306.2 117.4"></polygon>
    <path class="st1" d="M317.5,99.9l-1.9.2-.8,3.3h-2.2s-.3,1.8-.3,1.8h2.1s-1.3,8.8-1.3,8.8c0,.4,0,.6,0,.7,0,.9.3,1.7.8,2.2.5.5,1.3.8,2.3.8,1,0,2-.3,2.9-.9l-.7-1.6c-.4.2-.7.3-1,.4-.3,0-.6.1-.8.1-.4,0-.7-.1-.9-.3-.2-.2-.3-.5-.3-.9,0-.2,0-.4,0-.5l1.3-8.9h2.7s.5-1.8.5-1.8h-3s.5-3.5.5-3.5Z"></path>
    <polygon class="st1" points="329.6 96.2 324.5 99.2 325.1 100.4 330.5 98.1 329.6 96.2"></polygon>
    <path class="st1" d="M327,103.1c-1.6,0-2.8.5-3.9,1.4-1,.9-1.8,2.1-2.3,3.5-.5,1.4-.7,2.9-.7,4.4,0,1.7.4,3,1.2,4,.8,1,2,1.4,3.5,1.4,1.6,0,3.1-.5,4.6-1.7l-1-1.6c-.6.4-1.2.7-1.7.9-.5.2-1.1.3-1.7.3-1.7,0-2.6-1.2-2.6-3.5v-.2c2.7-.3,4.8-.9,6.3-1.7,1.5-.8,2.2-2.1,2.3-3.9,0-1-.3-1.8-1-2.5-.7-.7-1.7-1-3-1ZM327.1,109.3c-1,.5-2.5.9-4.5,1.2.2-1.5.7-2.8,1.4-3.9.7-1,1.6-1.6,2.9-1.6.6,0,1.1.2,1.3.5.3.3.4.7.4,1.2,0,1.2-.5,2-1.5,2.5Z"></path>
  </g>
</svg>
