<?xml version="1.0" encoding="UTF-8"?>
<svg id="Layer_1" xmlns="http://www.w3.org/2000/svg" version="1.1" viewBox="0 0 6000 4000">
  <!-- Generator: Adobe Illustrator 29.8.2, SVG Export Plug-In . SVG Version: 2.1.1 Build 3)  -->
  <defs>
    <style>
      .st0 {
        fill: none;
        stroke: #0c0c0c;
        stroke-miterlimit: 10;
        stroke-width: 14px;
      }

      .st1 {
        display: none;
        fill: #fff;
      }
    </style>
  </defs>
  <rect class="st1" width="6000" height="4000"/>
  <path class="st0" d="M70.92,2914.75c232.84-81.29,208.04-16.53,380.25,42.71,172.22,59.24,221.81-355.45,377.5-384.39,155.68-28.93-44.09,230.08-9.64,308.61,34.44,78.53,135.02-115.73,270.03-117.11,135.02-1.38,304.23,215.49,398.16,192.88,93.94-22.61,44.09-112.97,53.73-170.84,9.64-57.86,75.77,119.86,39.95,163.95-35.82,44.09-986.45,71.64-1023.65-30.31-37.2-101.95-24.8-500.12,27.55-836.28,52.35-336.17,404.36-568.31,504.94-648.22,100.57-79.91,140.53,3.44,163.26-15.84,22.73-19.29-3.44-84.04,4.13-130.2,7.58-46.15,118.48,19.29,167.39,8.96,48.91-10.33-37.2-37.89-44.78-90.24-7.58-52.35,128.82,50.29,144.66,6.89s-74.4-177.73,36.51-197.7c110.91-19.98,225.95,81.97,240.41,75.09,14.47-6.89-17.91-16.53-38.58-31.69-20.67-15.15,25.49,5.51,42.02.69,16.53-4.82-59.24-90.24-278.3-139.15-219.06-48.91-378.88,110.91-378.88,119.17s16.53-4.13,29.62-6.2c13.09-2.07-53.04,36.51-68.2,172.9-15.15,136.4,70.95,242.48,144.66,254.88,73.71,12.4,53.04-128.13,125.37-110.22,72.33,17.91,104.71,201.15,13.09,170.15-91.62-31-65.44-157.75-9.64-179.1,55.8-21.35,66.82,88.86,98.51,90.93,31.69,2.07-3.44-91.62.69-126.06,4.13-34.44,59.24,0,96.44-45.47,37.2-45.46-22.04-181.17-16.53-192.88s106.77-33.07,182.55,15.16c75.77,48.22,57.86,190.82,54.42,270.03-3.44,79.22,46.84,108.15,46.84,146.04s-71.64,11.71-76.46,93c-4.82,81.29-66.82,147.42-160.51,112.97-93.69-34.44-160.51,53.73-156.37,65.44,4.13,11.71,28.93-19.29-9.64-72.33-38.58-53.04-331.34-318.94-364.41-305.17-33.07,13.78-54.42,73.71,81.97,161.88,136.39,88.17,213.55,203.9,257.63,245.24,44.09,41.33,75.77-48.22,103.33-31.69,27.55,16.53,51.66,252.81,6.2,253.5-45.46.69-99.2-263.15-270.03-312.74-170.84-49.6-389.9,121.24-373.36,398.16,16.53,276.92,483.12,512.51,646.61,583.24,163.49,70.72,240.64,11.94,282.89-40.41,42.25-52.35,100.11,13.78,194.72,0,94.6-13.78,55.11-45.92,67.97-98.28s51.44,58.78,96.44,7.35c45.01-51.44,84.2-13.09,154.31-65.21,58.35-43.38,65.67-73.02,47.3-97.36-18.37-24.34-13.32-19.75-15.15-39.49-1.84-19.75-31.23-24.34-45.01-34.44-13.78-10.1-20.21-17.91-38.58-33.07-18.37-15.15-116.42,52.93-92.65,58.44,23.77,5.51-3.1-14.47-30.31-7.23-27.21,7.23-28.59,42.71-48.56,44.78-19.98,2.07-17.91-28.93,58.55-9.64,76.46,19.29,130.65,123.08,129.97,143.74-.69,20.67-42.02,34.21-67.51,23.88-25.49-10.33-57.63-133.18-110.68-144.2-53.04-11.02-264.52,28.93-330.65-31.69-66.13-60.62-396.79-544.2-564.87-596.56-168.08-52.35-309.99,198.39-304.48,359.59,5.51,161.19,406.43,567.62,684.73,626.87,278.3,59.24,563.19-158.49,623.81-186.05,25.96-11.8,125.65-.43,238.44,5.78,144.35,7.95,388.52,38.73,468.87,27.25,80.35-11.48-10.96-63.65,0-148.17,10.96-84.52,59.22-141.13,79.57-146.61,20.35-5.48,104.87-7.83,115.04,3.91,10.17,11.74,29.74,179.22,2.61,196.43-27.13,17.22-162.26,27.65-158.61,16.7,3.65-10.96,168.52-59.48,271.3-74.61,102.78-15.13,248.35-.52,277.04-3.65,28.7-3.13,134.09-62.61,143.48-75.13,9.39-12.52,8.87-43.83,7.3-49.3-1.57-5.48-116.09,39.13-112.17,47.74,3.91,8.61,81.39-19.83,127.57-50.61,46.17-30.78,58.96-32.09,60.52-48.26,1.57-16.17-67.83,3.91-67.83-6.52s337.43-181.3,346.43-178.57c9,2.74,22.3,12.52,11.35,24.26-10.96,11.74-317.87,174.65-432.13,188.22-114.26,13.57-127.43-32.87-129.78-12.13-2.35,20.74,16.04,34.83,81.39,20.74,65.35-14.09,94.3-27,84.91-47.74-9.39-20.74-35.61,20.74-94.3-1.57-58.7-22.3-99.39.39-112.3-11.35-12.91-11.74,60-87.78,71.48-271.43,11.48-183.65,67.83-444.52,84.52-465.39,16.7-20.87,197.74-13.3,261.13-23.48,63.39-10.17,121.7,25.83,123.65-7.04s-113.87-86.09-122.87-71.22c-9,14.87,11.74,25.04,31.3,17.61,19.57-7.43,40.3-32.48,36.39-45.78-3.91-13.3-26.22-14.48-21.52-.39,4.7,14.09,121.7,104.09,142.04,89.22,20.35-14.87-75.52-153.39-117.78-167.48-42.26-14.09-117.78,46.96-160.43,93.91-42.65,46.96-30.52,97.04-4.3,114.65,26.22,17.61,171.39,78.26,221.09,61.43,49.7-16.83,15.26-64.96,70.83-84.13,55.57-19.17,543.26-40.96,539.09-21.13-4.17,19.83-65.74,77.22-60.52,331.83,5.22,254.61-32.35,794.09-61.57,819.13-29.22,25.04-1106.09-95.22-1116.65-99.52-10.57-4.3,11.74-55.17,20.74-57.13s4.7,35.61,6.26,38.35c1.57,2.74,1048.7,93.52,1065.91,78.65,17.22-14.87,56.35-891.39,54.78-925.83s-418.7-18.78-428.09-10.17c-9.39,8.61-40.7,368.61-14.87,367.04s13.3-317.74,57.13-340.43c43.83-22.7,338.87-3.13,341.22,12.52,2.35,15.65-21.91,667.3-41.74,701.74-19.83,34.43-361.04,29.22-369.39,0-8.35-29.22,27.13-315.65,17.74-334.96-9.39-19.3-108.26,5.74-116.09-11.48-7.83-17.22,8.61-340.43,3.91-365.48-4.7-25.04-291.91-20.35-309.91-3.13s-104.87,536.09-105.39,551.74c-.52,15.65,65.22,24,63.13,5.22-2.09-18.78-156.52.52-226.43,39.13-69.91,38.61-179.48,58.43-260.35,58.43s-250.96-8.35-358.43-53.22c-107.48-44.87-128.35-53.74-128.35-34.43s75.65,49.04,61.57-8.87c-14.09-57.91-41.61-160.83-129.26-221.09-87.65-60.26-111.13-243.39-118.57-278.61-7.43-35.22-25.04-163.96,5.09-221.87,30.13-57.91,38.35-102.13,50.09-94.7s5.09,48.52-52.43-13.7c-57.52-62.22-153-288.39-21.52-412.83,131.48-124.43,326.35-58.3,437.87-11.74,111.52,46.57,99.39,222.65,84.52,197.61-14.87-25.04-56.74-121.3-84.13-123.65-27.39-2.35,4.7,130.7-18,163.96-22.7,33.26-71.61,60.65-70.83,42.65s15.65-70.04-3.52-51.26c-19.17,18.78-59.87,94.7-104.87,123.65s-80.22,5.48-70.43-3.13c9.78-8.61,61.83-36.78,35.61-32.87-26.22,3.91-111.52,19.96-129.91,47.74-18.39,27.78,74.35,144.78,113.09,120.13,38.74-24.65-78.26-171.78-114.26-165.91s-45.39,69.65-28.17,55.57c17.22-14.09,78.65-133.43,116.61-167.48,37.96-34.04-8.61,64.96,16.83,68.09,25.43,3.13,3.13-223.43,57.52-261.78,54.39-38.35,211.3,10.96,243.39,80.22,32.09,69.26,15.65,115.43,26.61,147.91,10.96,32.48,34.17,47.87,42,125.09,7.83,77.22,7.3,167.48-80.87,189.39-88.17,21.91-244.7-62.09-250.96-73.57-6.26-11.48,8.35-26.35,9.65-16.43,1.3,9.91-9.13,125.48,3.39,148.96,12.52,23.48,181.57,144.52,204.52,140.87,22.96-3.65,41.74-175.3,57.91-174.26,16.17,1.04-14.61,109.57-2.61,134.09,12,24.52,29.22,31.3,40.17,21.91s40.96-126.26,33.91-156.39c-7.04-30.13-38.74-25.43-39.13-16.43s52.7,43.96,55.3,85.17c2.61,41.22,26.61,348.52,55.83,439.3,29.22,90.78-32.09-339.39,0-402.78,32.09-63.39-23.09-122.09-5.09-131.48,18-9.39,39.13,30.91,49.3,68.48,10.17,37.57,73.96,34.43,95.48,94.7,21.52,60.26,58.57,259.96,55.96,301.7s-102.78,80.87-136.7,76.7c-33.91-4.17-24-48.52,16.17-39.65,40.17,8.87,95.48-3.65,92.87-74.09s-55.83-295.83-100.7-303.65c-44.87-7.83-66.78,105.39-19.3,188.35,47.48,82.96,112.17,172.17,168,190.96,55.83,18.78,82.96-15.65,82.96,7.3s-108,59.48-180-35.48c-72-94.96-138.26-245.74-142.43-345.39-4.17-99.65-23.48-130.3-5.48-145.17,18-14.87,66.52-10.96,59.48-28.57s-111.13-27-99.78-35.61c11.35-8.61,118.17,7.43,176.48,9,58.3,1.57,106.83,10.96,169.83,62.22,63,51.26,177.91,202.83,172.17,209.09-5.74,6.26-90.78-3.65-87.65,16.7,3.13,20.35,67.83,39.65,69.91,78.26,2.09,38.61-84,51.13-72.52,119.48,11.48,68.35,53.22,101.74,56.87,86.61,3.65-15.13-94.43-33.39-125.74-91.83-31.3-58.43-32.35-237.91-23.48-231.65,8.87,6.26,49.04,223.83,46.43,332.87s-30.26,139.83-19.83,184.7c10.43,44.87-5.74,45.91-103.3,56.35-97.57,10.43-156-194.61-154.96-145.57,1.04,49.04,52.17,151.83,26.61,146.09-25.57-5.74-81.39-201.91-148.7-271.83-67.3-69.91-268.7-367.83-273.91-339.13-5.22,28.7,283.57,499.83,300,470.09,16.43-29.74-308.35-438.26-331.83-460.96-23.48-22.7,25.04,153.39-25.04,100.96-50.09-52.43-89.74-313.57-72-306.26,17.74,7.3,43.83,89.22,61.57,120,17.74,30.78,56.87,39.13,42.78,48-14.09,8.87-41.22,16.7-41.22,70.96s55.83,347.48,35.48,347.48-79.83-185.48-92.35-184.7c-12.52.78,4.7,122.87-16.43,99.39s-73.57-176.09-61.83-207.39c11.74-31.3,81.39,54.78,75.91,22.7-5.48-32.09-69.65-117.39-72-198.78-2.35-81.39,39.13-126.78,15.65-117.39-23.48,9.39-55.57,90.52-56.09,150.52-.52,60,52.96,85.83,45.13,99.13s-118.96-71.22-168.26,46.17c-49.3,117.39,115.3,682.7,187.3,733.83,72,51.13,624,61.57,825.39,84.52,201.39,22.96-142.96,179.48-117.91,223.3,25.04,43.83,845.74-148.7,883.3-153.39,37.57-4.7,527.48,35.48,545.22,52.17,17.74,16.7,7.3,151.3,0,163.83-7.3,12.52-333.91,109.57-380.87,109.57s-529.04-69.65-539.22-78.26c-10.17-8.61-5.48-103.3,3.91-111.91,9.39-8.61,365.48-114.26,379.57-117.39,14.09-3.13,478.17,43.04,487.57,50.09,9.39,7.04-302.87,116.61-340.43,115.04s-464.09-36-477.39-29.74c-13.3,6.26-33.65,40.7-14.09,65.74,19.57,25.04,466.43,76.7,491.48,76.7s477.39-120.52,550.96-151.83c73.57-31.3-187.83-48.52-102.52-64.17,85.3-15.65,502.43,83.74,629.22,6.26"/>
</svg>